<svg height="512" viewBox="0 0 128 128" width="512" xmlns="http://www.w3.org/2000/svg"><g><g><path d="m12.004 40.056h103.992v57.887h-103.992z" fill="#00ddc1" transform="matrix(0 -1 1 0 -5 133)"/><path d="m76.077 25h-24.154a8.867 8.867 0 0 1 -8.867 8.867v70.258a8.867 8.867 0 0 1 8.867 8.875h24.154a8.867 8.867 0 0 1 8.867-8.867v-70.262a8.867 8.867 0 0 1 -8.867-8.871z" fill="#fedb41"/><path d="m76.944 67.25h-3.254v-1.516a5.757 5.757 0 0 0 -5.75-5.75h-3.94a1.751 1.751 0 0 0 -1.75 1.75v12.782h-2.19a2.253 2.253 0 0 1 -2.25-2.25v-10.532a1.75 1.75 0 0 0 -3.5 0v5.516h-3.254a1.75 1.75 0 0 0 0 3.5h3.254v1.516a5.757 5.757 0 0 0 5.75 5.75h3.94a1.751 1.751 0 0 0 1.75-1.75v-12.782h2.19a2.253 2.253 0 0 1 2.25 2.25v10.532a1.75 1.75 0 1 0 3.5 0v-5.516h3.254a1.75 1.75 0 1 0 0-3.5z" fill="#1689fc"/><path d="m64 43.916a3.586 3.586 0 1 1 -3.586 3.584 3.585 3.585 0 0 1 3.586-3.584z" fill="#ff7816"/><path d="m64 94.084a3.586 3.586 0 1 0 -3.586-3.584 3.585 3.585 0 0 0 3.586 3.584z" fill="#ff7816"/><path d="m1.75 7.004v33.969h33.306v-23.969h57.888v23.969h33.306v-33.969z" fill="#1689fc"/><g fill="#e1e4fb"><path d="m35.056 17h-16.322a6.984 6.984 0 0 0 0 13.968h16.322z"/><path d="m109.266 17h-16.322v13.972h16.322a6.984 6.984 0 0 0 0-13.968z"/></g></g><g><path d="m92.943 78.452a1.75 1.75 0 0 0 -1.75 1.75v7.455a1.75 1.75 0 0 0 3.5 0v-7.457a1.749 1.749 0 0 0 -1.75-1.748z"/><path d="m77.827 25a1.749 1.749 0 0 0 -1.75-1.75h-24.154a1.75 1.75 0 0 0 -1.75 1.75 7.125 7.125 0 0 1 -7.117 7.117 1.75 1.75 0 0 0 -1.75 1.75v70.258a1.75 1.75 0 0 0 1.75 1.75 7.125 7.125 0 0 1 7.117 7.125 1.75 1.75 0 0 0 1.75 1.75h24.154a1.749 1.749 0 0 0 1.75-1.75 7.124 7.124 0 0 1 7.117-7.117 1.749 1.749 0 0 0 1.75-1.75v-70.262a1.749 1.749 0 0 0 -1.75-1.75 7.124 7.124 0 0 1 -7.117-7.121zm5.367 77.519a10.643 10.643 0 0 0 -8.722 8.723h-20.943a10.645 10.645 0 0 0 -8.723-8.723v-67.042a10.645 10.645 0 0 0 8.723-8.723h20.943a10.643 10.643 0 0 0 8.722 8.723z"/><path d="m73.69 67.25v-1.516a5.757 5.757 0 0 0 -5.75-5.75h-3.94a1.751 1.751 0 0 0 -1.75 1.75v12.782h-2.19a2.253 2.253 0 0 1 -2.25-2.25v-10.532a1.75 1.75 0 0 0 -3.5 0v5.516h-3.254a1.75 1.75 0 0 0 0 3.5h3.254v1.516a5.757 5.757 0 0 0 5.75 5.75h3.94a1.751 1.751 0 0 0 1.75-1.75v-12.782h2.19a2.253 2.253 0 0 1 2.25 2.25v10.532a1.75 1.75 0 1 0 3.5 0v-5.516h3.254a1.75 1.75 0 1 0 0-3.5z"/><path d="m64 52.838a5.336 5.336 0 1 0 -5.336-5.338 5.342 5.342 0 0 0 5.336 5.338zm0-7.172a1.836 1.836 0 1 1 -1.836 1.834 1.837 1.837 0 0 1 1.836-1.834z"/><path d="m64 85.162a5.336 5.336 0 1 0 5.336 5.338 5.342 5.342 0 0 0 -5.336-5.338zm0 7.172a1.836 1.836 0 1 1 1.836-1.834 1.838 1.838 0 0 1 -1.836 1.834z"/><path d="m126.25 5.254h-124.5a1.75 1.75 0 0 0 -1.75 1.746v33.973a1.75 1.75 0 0 0 1.75 1.75h31.556v78.277a1.75 1.75 0 0 0 1.75 1.75h57.887a1.749 1.749 0 0 0 1.75-1.75v-14.875a1.75 1.75 0 0 0 -3.5 0v13.121h-54.387v-100.492h54.387v42.98a1.75 1.75 0 0 0 3.5 0v-19.011h31.557a1.749 1.749 0 0 0 1.75-1.75v-33.973a1.749 1.749 0 0 0 -1.75-1.746zm-16.984 13.5a5.235 5.235 0 0 1 0 10.469h-14.573v-10.469zm15.234 20.469h-29.807v-6.5h14.573a8.735 8.735 0 0 0 0-17.469h-85.079a1.75 1.75 0 0 0 0 3.5h9.119v10.469h-14.572a5.24 5.24 0 0 1 -5.234-5.235 1.75 1.75 0 0 0 -3.5 0 8.744 8.744 0 0 0 8.734 8.735h14.572v6.5h-29.806v-30.469h121z"/></g></g></svg>